#!OML:ASF F:\VICON\USERDATA\INSTALL\rory3\rory3.ASF
:FULLY-SPECIFIED
:DEGREES
9
root 0.6595656733355854 18.33069096473219 -22.776486244412055 5.745516295010225 4.605337239562853 -3.975651944474763
lfemur -40.38678829045995 -6.10987512353838 -16.0136105381888
ltibia 54.985997388265375
lfoot -8.966963946152116 -6.996285228846618
ltoes -7.801178697809744
rfemur 6.819068278254825 2.3107317464813493 32.668891533748834
rtibia 31.994709663249157
rfoot 12.598191102123412 0.023155942954448783
rtoes -1.9506372357643158
lowerback 13.265602112968882 2.5900002272699845 5.524888470224751
upperback -0.914751355045385 4.46241898162185 1.5971863078300064
thorax -8.143732726295726 1.9559593387005512 -2.2885589675633415
lowerneck -18.02710917207671 -4.905699400540985 -1.7330556286225955
upperneck 5.974118346378415 -6.468820893625864 3.094764311422404
head 4.838238657863325 -2.9961291948954947 0.6470925459143926
lclavicle 4.28748941816696e-15 5.758949978179451e-17
lhumerus -67.84868832181131 -4.414695894018188 95.38130387990596
lradius 106.445006489145
lwrist 28.572795538053885
lhand -28.638604731951514 2.8856716646426297
lfingers 7.125019999999998
lthumb -2.002654732171159 32.856001591828
rclavicle 4.28748941816696e-15 5.758949978179451e-17
rhumerus -29.894212342741397 15.867696825024318 -94.30042006665602
rradius 110.0979847451927
rwrist -11.759289668663556
rhand -20.243805128361927 46.16986261505912
rfingers 7.125019999999998
rthumb 6.10441487104683 16.277862534011955
10
root 0.6884218644211557 18.48528836909892 -21.760286692672835 5.624597003867113 4.73142693243694 -3.332914193274684
lfemur -38.08938943667605 -7.118262741097993 -16.71290943971683
ltibia 45.26270172097283
lfoot -7.4365348601170735 -8.531633068099916
ltoes -6.980699545303908
rfemur 9.060127127919973 1.9315626511816464 31.480693460231098
rtibia 31.094910053158877
rfoot 21.61318499312979 0.012729369750465125
rtoes 2.53625878158381
lowerback 12.586205342681353 2.799988822828616 5.131049500517644
upperback -1.052625524607384 4.617858347995885 1.3210391304283309
thorax -7.8995059901377696 2.050328442312042 -2.353648694891569
lowerneck -17.380613721339635 -5.042128066391896 -1.5176790780642975
upperneck 6.502375652324412 -6.707209304116579 2.912136067643111
head 4.894737876131218 -3.121597374221916 0.5407827576244086
lclavicle 4.287489612463534e-15 5.758953334268986e-17
lhumerus -68.95068758604866 -3.5208380543543 94.91260589190513
lradius 106.34400668683227
lwrist 28.07859773817643
lhand -34.97097157980202 7.744421562623399
lfingers 7.125019999999998
lthumb -8.116741582718706 37.56858207256288
rclavicle 4.287489612463534e-15 5.758953334268986e-17
rhumerus -30.83181152133666 16.283595674825328 -94.90761769980543
rradius 109.86298534744044
rwrist -9.308262262034233
rhand -19.71620810316747 48.97235058570775
rfingers 7.125019999999998
rthumb 6.613811896332277 19.095650435736395
11
root 0.6980435946989176 18.585786681769406 -20.7639871321555 5.594007183191737 4.400107739455401 -3.415663903751411
lfemur -35.87089054352742 -7.61346157112959 -16.415509906877652
ltibia 35.84920591563326
lfoot -2.9776275229552907 -9.665551472298368
ltoes -6.471510071258902
rfemur 10.239586522503796 3.0816199071364268 31.599693267291027
rtibia 32.1310096041864
rfoot 27.552980968038263 -2.4717966450879687
rtoes 5.874525818476273
lowerback 12.22000708351254 3.089916883737766 5.032279758901829
upperback -1.4779998772741538 4.984146854874053 1.281529534269938
thorax -8.129132921407274 2.2185668442575395 -2.39714851266355
lowerneck -16.28892140336646 -5.189316627020765 -1.4012509427615645
upperneck 7.038642917420493 -6.949447688936696 2.8002171438968597
head 4.887477976580337 -3.251235493038185 0.48296250442392
lclavicle 4.2874894166230536e-15 5.758951244625979e-17
lhumerus -70.27178670400134 -2.9069195381140958 94.5319075261447
lradius 106.53200631885996
lwrist 27.331401064626366
lhand -35.30536982911054 7.757101510162876
lfingers 7.125019999999998
lthumb -8.439489832837143 37.568482072977076
rclavicle 4.2874894166230536e-15 5.758951244625979e-17
rhumerus -32.12781038594788 16.470795157111343 -95.61141495641044
rradius 110.0039849860918
rwrist -9.46259146909128
rhand -22.26659372306124 39.84378976898583
rfingers 7.125019999999998
rthumb 4.151376276163154 9.904509898234938
12
root 0.712916177781556 18.64108575331844 -19.773287569167884 5.779846093760999 4.123078414236038 -4.093991530430238
lfemur -34.28239133605997 -7.3722521410166575 -15.78001090513153
ltibia 27.919109449289806
lfoot 2.103309442733373 -10.18980073450473
ltoes -5.804070760674252
rfemur 10.484586396745417 4.122377423881203 32.39209198253717
rtibia 34.693308493866994
rfoot 28.998879988227447 -4.239072103240035
rtoes 11.780790575966458
lowerback 11.698509562604468 3.2542257848103806 5.661828111987117
upperback -1.5378590825744338 5.269665690998033 1.3677186533003574
thorax -7.829716922797707 2.3421856700332344 -2.668157377362059
lowerneck -17.033716162390384 -5.192836592598678 -1.2206938345397873
upperneck 7.685519618420662 -6.987657434164476 2.6407186776930778
head 5.197503687015665 -3.258675385077625 0.3738498008124159
lclavicle 4.287489600444006e-15 5.75895732356355e-17
lhumerus -70.48268656319158 -2.750179916933039 94.37200821255108
lradius 107.07500525604624
lwrist 26.849103211771457
lhand -33.60017875638066 7.21993373257753
lfingers 7.125019999999998
lthumb -6.7936187564469 37.09098405074924
rclavicle 4.287489600444006e-15 5.75895732356355e-17
rhumerus -31.988410508072263 16.992193715145124 -96.06191320037257
rradius 109.39698654168492
rwrist -9.695540272201102
rhand -22.698991285028804 39.40949163315971
rfingers 7.125019999999998
rthumb 3.733808714623214 9.462491796055849
